<?xml version="1.0" encoding="UTF-8"?>
<svg version="1.1" viewBox="0 0 1420 1440" width="355" height="360" xmlns="http://www.w3.org/2000/svg">
<path transform="translate(785)" d="m0 0h24v2l6 2 10 9 5 8 3 8v13l-2 9 34 14 58 25 79 34 44 19 30 13 31 13 15 7 10 4 4-6 8-8 10-5 4-1h15l9 3 6 4 8 11 3 11v10l-4 12-8 11-2 1 2 6 8 11 142 213 11 17 12 19v2l12-5 6-1h10l10 3 8 5 7 7 7 12v21l-6 11-9 10-7 5-8 3-7 2v51l-1 131v30l4 10v11l-4 10-1 65v34l16 6 9 7 6 8 5 11 1 3v13l-4 11-7 9-8 6-7 3-5 1h-12l-9-2-6-3h-3l-9 13-10 15-10 14-12 17-10 14-28 40-12 17-13 18-10 14 2 6h2l6 10 2 9-1 11-4 8-8 8-9 4-5 1h-7l-10-3-9-6-4 1-10 10-11 9-15 13-11 10-3 3 6 10 3 9 1 5-1 13-5 12-7 8-8 6-12 4h-17l-11-4-9-6-9-9-14 8-27 15-21 12-25 14-17 10-26 15-26 14-16 9 3 11v10l-4 11-9 10-9 5-4 1h-14l-11-4-9-8-6-12-1-6-79 1-38 1-3 13-7 11-7 7-14 8-2 1h-22l-15-9-8-9-6-12-1-5v-12l-15-1-109-15-36-5-1 6-7 10-7 6-8 4-4 1h-15l-9-4-8-7-6-12-1-11 2-9 5-9-1-4-15-13-13-12-8-7-11-10-11-9-12-11-8-7-10-9-8-7-12-11-11-9-2-2-6 1-11 4-5 1h-9l-12-3-11-7-7-9-4-8-2-7v-15l3-10-1-5-10-9-8-7-12-11-11-9-7-7-8-7-10-9-11-9-5-5-5 2-8 5-6 2h-15l-9-4-7-6-7-14v-15l5-12 6-7 8-5-3-11-15-43-16-45-10-29-18-51h-19l-10-3-8-5-6-5-7-11-3-6v-23l9-14 8-8 10-5 8-2h7v-16l5-69-12-5-9-8-6-12-1-11 2-9 5-8 5-5 6-4 7-2h13l4-20 24-100 14-57 6-24v-3l-11-6-9-9-6-10-3-10v-12l3-10 5-8 5-5 9-6 11-3h10l12 3 14 8 2-4 7-7 1-2h2l2-4 17-17 7-8 12-12 3-5 2-8 5-9 9-6 12-5 22-22 7-8 9-9 7-8 11-11 7-8 31-31 7-8 9-9 7-8 21-21-1-5-6-10-2-5-1-11 3-12 6-9 8-7 9-4 4-1h11l13 4 6 4 6 5 9 15 28-5 74-14 56-10 42-8 81-15 45-8h3v-12l4-11 7-9 9-7zm-31 47-140 26-113 21-56 10-15 3-1 5 2 3 105 12h8l4-10 7-8 9-4 10-1 13 4 6 5 5 7 24-10 25-11 40-17 41-17 30-13 2-1-1-4zm3 8-12 6-34 14-70 30-31 13-10 5v7l1 3 9 2 7 1h15l25-15 19-12 30-18 13-8 28-17 11-7 3-2v-2zm70 0-1 5 10 9 14 11 13 11 14 11 13 11 11 9 16 13 11 9 9 7 10-4 9-1 10 2 8 6 5 8 3 13 13 2 125 13h8l2-2v-4l-32-14-63-27-72-31-74-32-30-13-26-11zm-65 4-5 4-21 13-28 17-26 16-23 14-20 13 1 2 42 5 121 13 111 12h12l5-8-1-4-10-9-11-9-12-11-11-9-10-9-11-9-10-9-11-9-10-9-11-9-4 2-10 6-7 2h-17l-10-4-8-7-4-4zm-332 60-5 11 1 4 14 10 18 13 14 10 11 8 4-2 10-8 8-4 18-4 22-12 1-3-3-10-7-2-99-11zm-8 17-8 7-9 4-4 1h-13l-10-3-6-3-3 1-11 14-10 13-9 11-14 17-11 14-11 13-10 13-14 17-8 10-14 17-8 10 2 5 4 2 46-24 22-12 23-12 22-12 25-13 19-10 23-12 22-12 23-12v-3l-15-11-34-24zm179 1-4 9-2 6 2 3h5l16-10 4-4-5-2zm30 4-8 4-19 12v4l16 16h2v2l8 7 31 31 7 2 87 9 75 8h11l41-23 45-26-1-8-1-7-77-8-213-23zm-85 7-16 9 3 3 12 5 8 5h2l4-12-8-7-3-3zm44 7-5 3-8 2h-15l-5 10 1 5 3 4 4-2 22-13 8-6v-2zm-240 4-26 26-7 8-18 18v2h-2l-7 8-6 6v2l-3 1-7 8-11 11-7 8-23 23-2 5 13 5h3l9-11 13-16 11-14 12-14 9-12 14-17 9-11 13-16 10-12 4-6zm247 2-24 15-9 6 1 5 3 9 1 10 1 2 13 2 70 7v-3l-40-40-8-7-6-6zm384 18-2 1 1 6 11 9 16 13 10 8 16 13 4 4 4-1 8-7 10-5 7-2h17l10 3 8 5 9 8 7-6 14-10-1-7-2-8v-8l-1-1-85-9-56-6zm-504 6-20 10-22 12-27 14-51 27-28 15-23 12-22 12-27 14-1 4 3 11 1 8 6 1 11-4 66-32 23-11 34-16 39-19 28-13 12-6-1-7-2-8v-9l3-12v-3zm500 3v3l8 7 14 12 10 8 14 12 10 8h2l-2-4-10-9-14-11-28-24zm-49 2-23 13-25 14-24 14-8 5 3 2 43 5 58 6h10l-2-17-4-29-1-1-12-2-6-3-5-5zm43 4-5 4-6 3 1 14 5 35 13 2 39 4h9l5-11-1-4-10-9-11-9-13-11-22-18zm-402 18-4 13-7 11-6 5 2 5 8 10 12 17 39 54 4 6 8-1 84-28 7-2 1-11 4-8-1-4-6-5-51-51-4-2-85-9zm564 8-17 13-4 3 1 5 4 12v15l-5 15-4 6 2 4 11 9 8 7h2v2l10 8 10 9 10 8 28 24 11 9 14 12 11 9 6 5h4l-1-9-20-52-21-55-10-26-9-23-7 1h-15l-10-4-8-7zm-464 3 3 5 8 7 43 43 4-1 6-3h12l8 4 4 4 5-1 23-13 26-15 18-10 2-3-12-2-142-15zm-190 4-16 8-33 16-25 12-34 16-33 16-25 12-22 10-16 8 1 3 35 12 50 16 73 24 4-1 8-14 12-26 13-28 17-36 12-26v-4l-9-7-7-8-2-3zm700 0-2 3 10 25 40 104 12 32h17l8 3 6 5 5 10 1 5v7l-3 9 8 8 14 11 10 9 11 9 14 12 22 18 5-1-1-6-11-18-8-11-10-16-10-14-19-29-112-168-5-7zm-340 14-17 9-24 14-27 15-11 7 1 5v8l-1 7 28 16 24 14 29 17 26 15 22 13 26 15 18 11 4-2 12-12 7-8 16-17 5-5 1-6-6-39-8-59-1-5-2-1-114-12zm-292 4-10 4-15 2-7 14-14 32-17 38-15 33 2 4 3 1 2 4 2 3 7-1 35-12 40-13 41-14 11-3 1-4-26-36-30-42-7-10zm-42 3-8 15-13 28-11 23-13 28-10 21-1 5h17l5-11 9-21 20-45 15-33 2-7-9-3zm462 6 3 26 10 71 1 5 4-2 11-11 7-8 7-7 7-8 8-8 7-8 6-6-2-5-5-9-3-8-1-5v-11l-59-6zm138 40v3l7 7 5 4h2v2l9 7 13 11 10 8 13 11 10 8 11 9 9 8 2-1-7-7-11-9-9-8-11-9-28-24-13-11-10-9zm-7 5-11 7-1 2 7 24 24 87 3 9h12l65-6 23-3 2-9 3-6-2-4-9-8-10-8-13-11-10-8-13-11-11-9-17-14-13-11-11-9-13-11zm-58 1-16 17-24 26-13 14-4 4v11l7 49 11 2 7 5 4 8 1 3 17-1 83-8 3-1-4-16-15-54-14-51h-23l-13-5-4-3zm-324 5-87 29-8 3 4 7 14 19 26 36 10 14 13 18 12 17 10 14 5 6 2-3 16-133 2-13-10-6-5-5-2-3zm41 4-7 6-10 3-2 2-4 31-14 116v9l10 13 10 14 12 17 5 6 12-5 24-7 29-11 29-10 6-3 5-4v-2l3-1 7-8 14-15 1-3h2l7-8 16-17 9-9 7-8 3-3-1-3-28-16-27-16-26-15-87-51zm-560 9-8 8-7 8-10 10-5 6-7 6v2l-4 2v2h-2l-8 10 3 1 24-18 13-10 16-12 2-4-5-11zm62 6 1 2zm5 6-21 11-11 5-1 2 1 168 1 36 11 5 6 3 7-7 8-6v-2l4-2 13-11 14-11 14-12 10-8 13-11 10-8 12-10 11-9 17-14 11-9 13-11 11-8 5-7 7-16 5-10-1-5-26-8-128-42-9-3zm-58 4-28 21-19 14-8 6-1 4 8-1 33-16 16-8 7-13-2-4-4-3zm408 5-132 44-2 1v9l-1 7 10 7 20 12 16 10 19 12 26 16 19 12 72 45 19 12 12 8 4-2 5-3 8-2 4-31 2-14v-8l-14-19-12-17-14-19-13-18-10-14-26-36-9-12zm-396 3-4 6 1 2 9-4v-3zm7 7-14 7-4 6-8 16-17 35-11 22-9 19-5 9v6l9 16 12 22 17 32 12 22 1 2 4-2 6-5 10-4 1-1-1-134-1-68zm-23 11-33 16-15 7 3 10 1 5v8l-3 11-6 9-7 6-2 1 1 6 12 22 3-3 29-58 10-21 9-17v-2zm776 7-13 13-7 8-10 10-7 8-2 4 13 8 20 12 4-2 10-6-1-14-6-41zm218 5m1 1m1 1m-763 22-5 10-1 5 8-6 2-2-1-5zm40 8-6 5-10 3-1 9-8 151-4 75v15l7-1 72-20 26-7 16-8 26-15 17-10 25-14 24-14 26-15 6-4-1-10 1-7-19-12-23-14-19-12-21-13-72-45-19-12-26-16-13-9zm-34 2-14 11-5 6-17 36-13 28-16 34-14 30-10 22-7 15-15 31-4 8 1 4 20 11 24 14 22 13 8 5 10-1 28-8 2-1 1-5 5-93 8-153-11-7zm493 8-12 12-7 8-11 11-7 8-16 17-13 14 4 1 50-18 41-15 6-2 2-12 1-4-15-9-19-11zm281 9-70 7-23 2 1 8 17 61 19 68 16 58 4 15 4 1 7-24 11-39 20-72 15-53 2-9-9-6-5-6-4-11zm-801 5-11 9-10 9-9 7-11 9-17 14-13 11-10 8-17 14-11 9-17 14-11 9-17 14-8 7 1 5 2 5v9l-1 7 24 14 26 15 16 10 4-2 11-24 32-68 15-32 13-28 13-27 7-15zm701 5-96 9-6 2-3 9-3 6 12 14 13 15 9 11 12 14 9 11 12 14 9 11 13 15 11 13 9 11 22 26 9 11 18 21 4-1 6-2-1-8-13-47-38-136-5-17-1-2zm152 5-5 4-4 3 4 16 16 55 19 66 14 49 1 2h2l16-27 17-28 12-20-1-3-6-5-6-10-3-11v-8l4-13 3-6-8-7-14-11-25-20-14-11-16-13-3-2zm-1135-1-4 1-15 1-2 5-6 33-7 43-6 32-6 34-2 15 3-4 9-17 11-23 14-28 9-19 9-17 12-24v-7l-5-8-10-17zm1111 10-3 7-10 35-21 75-12 43-8 28-2 8 10 8 4 7 1 9-2 11 9 7 50 35 4-2 13-22 21-35 10-16 3-6-28-97-15-52-9-31-4-12zm-274 6-20 7-58 21-24 9-7 3-19 19-7 8-9 10-2 4 7 9 5 12 2 9v10l-3 13-1 4 7 5 19 9 19 10 33 17 27 14 15 8h2l3-16 10-61 17-104 1-8-10-6-5-6zm32 9-10 3-3 10-16 98-11 69-2 14 3 3 17 8 19 10 33 17 19 10 7 1 77-26 21-7 1-1v-7l3-10 3-3-1-4-11-13-12-14-8-10-9-10-9-11-12-14-9-11-12-14-14-17-13-15-8-10-13-15-9-11-11-13-6-7zm-847 9-4 6-11 23-56 112-4 13-4 22v6l3 3 5-2 23-12 22-12 23-12 22-12 32-17 3-2-1-14v-6l-15-28-13-24-13-23-11-21zm-53 8 1 2zm618 2-3 16-3 30 8 5 3 1 2 4 9-2 18-7-7-11-26-36zm-620 1-15 60-13 56-10 41v4l4-1 11-22 3-12 13-75 9-47v-4zm749 15-30 11-20 7-3 3 17 7 8 5 14-14 7-8 9-9v-2zm-104 38-15 5-1 1-2 12-1 5 7 6 2-1 5-15 6-10 1-3zm-53 23-49 28-52 30-6 4-9 5 2 1 34-9 89-25 2-1 2-14 1-11-10-7zm671 1-15 25-13 22-18 30-1 2v7l13 44 18 63 3 9h7l1-1 8-88 5-51 4-40 1-18-10-4zm-641 2-6 3-6 2-2 12v11l11-2 17-5-1-9-2-5-8-7zm658 22-2 5-5 47-11 117v9l13 7 3 1 1-54 1-99 1-33zm-647 3-23 6-3 3-3 26-6 67-10 100v5l5 3 6 5 3 5 17-4 41-11 2-1 1-3 11-108 5-50v-8l-15-5-11-7-8-9-7-14zm-524 4-14 8-34 18-22 12-25 13-22 12-10 6-1 2 3 10v7l-4 11-5 6 2 5 28 34 13 16 11 14 9 11 3 4 5-1 80-40 1-2 1-17 1-72 1-37-3-8-13-10-2-2zm43 2-8 6-10 4-1 4 8 16 12 22 11 20 6-1 9-2h13l14 3 3-4 7-17 5-10-2-4-18-10-27-16-18-11zm580 3-8 10-8 7-10 5-6 2 6 7 13 11 11 9 8 7h2v2l10 8 15 13 11 9 30 26 11 9 11 10 5-1 3-2 9-2 9-56 1-10-8-5-23-12-16-8-17-9-16-8-37-19zm-131 0-136 38-12 5-16 9-24 14-23 13-24 14-5 5 1 3v10l16 8 36 17 24 11 18 8 14 7 28 13 18 8 16 8 28 13 8 4 8-7 8-3 2-16 13-136 4-41-1-5zm-468 22-2 100v17l10-3-2-9-1-5v-17l5-14 7-10 9-8 2-1-2-6-14-26-10-18zm552 4-2 4-3 26-3 33-6 59-4 38v7l9-1 41-11 55-14 42-11 10-3 3-15-13-11-11-9-15-13-11-9-15-13-11-9-10-9-11-9-10-9-11-9-11-10-3-2zm-461 13-14 30 2 4 6 4 7 7 9 15 9-2 51-14 3-3-5-3-29-17-23-13-13-8zm-250 1-5 7-1 4 5 2 2-13zm463 6-40 11-39 11-11 3-1 1v12l10 6 4 3 28-16 26-15 23-13zm774 5-13 22-24 40-8 13 1 4 10 7 17 12 18 13 13 9 6 5 5-2 10-6-4-17-15-52-13-45zm-352 15-8 46-2 12v7l9 6 4 5 10-3 47-16 27-9 2-3-16-8-39-20-29-15zm-519 7-29 8-1 2h2v2l12 7h4l4-4 10-4v-11zm716 7-41 14-48 16-6 3 5 4 38 19 19 10 27 14 12 6 2-7 10-61-1-5-8-5-7-8zm-754 4-36 10-30 8-1 4v19l-4 11-5 8 2 4 11 10 11 9 9 7 8-6 12-11 11-9 10-9 11-9 9-8 5-4-2-14 1-8-9-6-8-5zm794 2-3 5 6 23 10 37 2 1h18l10 3 6 1 10-18 4-6-1-4-51-36-9-6zm-13 7-5 3-6 33-5 32v8l10 5 4-1 4-6 7-7 13-7-1-9-11-40-3-10-1-1zm-1114 11-3 6-2 11v8l14 75 2 10 5-1 19-9 19-10 14-7-2-5-13-16-11-14-14-17-11-14-12-14-2-3zm-16 5-3 30-3 39-1 10h2l3-10 8-46v-12l-1-9-1-2zm407 6-11 10 18 82 11 50 5 24 2 4 8 7 26 22 10 9 11 9 13 12 9 7 12-12 9-11 15-16 7-8 9-10 7-8 18-20 12-14 14-15 5-6-2-6-1-2-1-13-18-8-32-15-26-12-34-16-26-12-34-16-20-9-14-7zm592 0-35 12-40 13-12 4-2 2-2 12-3 4 2 5 12 13 9 11 11 12 9 11 10 11 7 8 9 11 9 10 9 11 10 11 9 11 4 4 5-2 14-8 17-11 23-14 14-9 9-6 2-7 10-61-2-4-84-43-12-7-9-4zm-624 5-11 9-11 10-11 9-12 11-11 9-9 8 2 4 11 10 11 9 3 3h2v2l11 9 12 11 11 9 11 10 11 9 13 12 16 14h1l-1-10-12-55-16-73-4-15-11-3-3-2zm834 13-10 17-4 6 1 5 8 7 6 9 4 9 2 15-2 12-5 11-4 6 2 4 10 9 8 8 5-1 16-12 14-11 16-12 3-3-2-5-2-6v-13l2-5-1-5-23-16-34-24-7-5zm-1021 6-9 4-1 2-2 93v29l12 5 5 2v-2l4-2 13-12 10-8 8-7 2-10 1-52v-17l-15-4-10-5-10-9-5-7zm-180 1-4 21-5 28v7l14 7 9 8 1-3-11-55-2-12zm163 7-19 10-19 9-19 10-21 10v4l10 12 9 11 13 16 8 10 13 16 11 14 2 2 6-1 7-3 2-91v-29zm98 2-7 6-12 6-15 3-1 29v43l5-3 14-12 10-9 11-9 12-11 11-9 5-5-2-4-11-9-12-11-6-5zm600 8-89 23-41 11-25 6-2 9-7 73-3 27v17l7 10 18 27 10 16 17 26 11 17 11-1h5l4-9 96-240-3-5-4-4-2-3zm30 10-9 2h-5l-8 19-43 108-41 102-8 19 1 4 5 4 3 4 5-1 19-12 16-10 38-24 26-16 57-36 26-16 30-19-2-5-9-10-9-11-11-12-9-11-9-10-9-11-10-11-9-11-10-11-9-11-9-10-1-2h-2v-2zm214 6-3 13-6 37-2 14 5-2 19-12-1-5-4-12v-16l3-11-3-3-6-3zm-809 8-13 12-11 9-11 10-8 7-14 12-10 8-3 3-1 3-1 45v24l6 4 32 13 83 35 73 31 12 5 3-2v-2l4-2 6-4-4-20-9-41-9-42-4-6-11-10-11-9-15-13-14-12-15-13-11-10-11-9-12-11-11-9-7-6zm-219 9-56 28-1 2 10 51 9 49 6 12 12 19 10 15 9 14 14 22 10 15 4-4 11-23 36-72 1-5-7-7-3-7v-13l4-8 2-2-1-5-8-9-9-11-13-16-9-11-13-16-11-14-3-4zm622 9-38 10-17 4-2 2-1 8-5 8 1 5 8 11 7 11 11 17 19 29 7 10h1l10-101 1-14zm573 17-17 13-14 11-16 12-3 3 5 6 8 7 9 9 8 7 4 5 4 1 4-10 10-29 10-26-2-4-7-5zm43 3-8 4-5 2 2 17 7 48 2 19 3 2 1-37v-55zm-26 5-3 4-20 56-3 10 1 3 8 7 15 14 2 2 6-1 10-5 5-2-1-14-10-66-2-7zm-170 2-21 13-5 5-6 35-6 39-4 24 1 5 9 5 5-1 11-9 17-13 9-7 2-3 13-58 3-12-1-5-12-6-7-6h-2l-2-4zm-507 7-9 9-7 8-9 10-9 11-8 8-7 8-9 10-7 8-10 11-7 8-9 10-7 8-9 10 1 4 60 52 12 11 7 3 55 4 37 3 2-7 6-58 4-39v-5l-16-24-17-26-11-17-12-18h-14zm581 1-9 6-9 4-11 2h-12l-3 9-11 48-2 9 1 4 16-13 11-8 18-14 26-20 7-5-2-4-16-16zm-106 12-17 11-26 16-19 12-14 9 2 4 9 11 11 12 8 10 13 15 4 3 10-3 5-1 9-54 6-38v-7zm-1066 2-8 13-4 5-4 3 2 5 8 11 11 18 7 10h1l-1-8-10-56zm198 0-10 9-8 7-13 11-2 2 1 4 3 9-1 9 3 3 24 10 4 1 1-36v-29zm998 10-11 9-12 9-36 28-13 10-8 6-4 5-17 76-9 38 1 8 15 32 12 27 11 25 5 10 6-1 8-9 18-22 13-38 10-28 18-50 10-29 17-48 7-19-1-4-8-7-10-9-13-13-8-6zm-1218 14-2 4 17 49 17 48 12 34 13 37 3 8 2 1-1-9-5-25-7-36-9-48-2-10-11-17-15-23-7-10-1-3zm426 20 2 10 19 87 1 2 11 2 5 2 11-13 12-13 7-8 5-6-1-3-10-8-15-13-12-11-11-9-10-9-11-9zm580 6-17 10-22 14-21 13-24 15-19 12-24 15-26 16-19 12-21 13-14 10 2 1 121-28 36-8 79-18 11-3 1-2 1-10 4-6-1-5-7-8-12-14-9-10-9-11-7-8zm256 2-4 9-16 46-15 42-23 65-10 26-2 11 5-5 11-13 8-10 12-14 9-11 9-10 11-14 9-10 7-9 11-13 9-10-1-4-7-10-4-13v-9l3-11 5-7-1-4-20-18-4-4zm-1074 4-9 10 2 6 25 55 12 27 2 1 1-85-4-3-19-8zm-153 9 1 2zm122 3-10 19-22 44-11 23-8 15-1 8 6 8 16 25 13 20 11 17 13 21 6 8 27 11 17 7h3l2-107v-23l-8-18-16-35-16-36-4-7zm68 4-2 69v24l9 20 19 42 13 29 15 34 6 13 5-1h11l10 4 3-1 7-8 9-9 7-8 17-17 7-8 14-14 7-8 13-13 7-8 16-16 7-8 8-8-1-7-2-5v-10l-10-5-133-56-35-15-24-10zm468 7-2 22-8 79 5 2 53 4h6l2-2 2-5 4-4-1-4-11-18-7-10-11-17-13-20-14-21-3-6zm433 2-10 8-13 10-11 8 1 5 2 4v12l-6 9-5 5 2 5 13 29 4 10 3 1 8-37 14-61 1-8zm-1082 8 1 10 5 25 15 80 2 1h9l8 1 8-16 7-13v-5l-16-25-15-23-11-17-12-18zm457 21-12 13-7 8-9 10-7 8 5 12 1 3 18 2 66 5 17 1v-2l-8-7-12-11-11-9-12-11-11-9-10-9-5-4zm544 18-43 10-74 17-83 19-54 12-2 1-1 9-5 10 22 28 28 36 10 13 11 14 16 21 21 27 10 5h15l5 2h3l15-24 24-38 14-22 15-24 9-14 24-38 15-24 11-17 7-10-2-4-6-9zm16 14-7 10-15 24-16 25-12 19-13 21-16 25-14 22-13 21-28 44 2 4 7 8 2 1h8l82-17 41-8 2-2 9-38 11-49 10-44 3-14-14-30-6-14-3-6-14-1zm218 12-5 4-8 10-6 7v2h-2l-11 14-9 10-8 10-11 13-13 16-13 15-7 10-6 16-4 12 1 4 4-1 11-16 8-11 12-17 10-14 12-17 11-16 26-36 9-13zm-808 14-5 9-3 4 1 4 14 24 13 23 14 24 14 26 3 4 13-2 69-15 19-4 1-5v-10l3-12 5-9 2-3-1-4-14-12-10-9-8-7-10-9-10-8-3-1-97-8zm-248 8-2 74v46l10 5 36 14h5l7-8 2-2-1-6-9-19-16-36-15-33-9-20-7-15zm366 2 4 5 11 9 13 12 11 9 8 7 4-1 8-6 10-5 19-3 1-7v-14l-78-6zm-488 2-8 15-6 13 10 9 5 12v13l-1 6 8 4 36 14 15 6 2-1-11-18-11-17-16-25-11-17-9-14zm335 2-20 20-7 8-15 15-7 8-13 13-7 8-14 14-7 8-15 15v2h-2l-7 8-7 7 1 4 3 7 2 11 11-2 82-18 93-20 10-2-1-5-8-15-13-23-12-21-13-23-8-13-2-4h-15l-5-2zm247 3-2 13v8l13 4 11 6 10 11 6-3 24-15 7-4-1-5-4-10-20-2-38-3zm424 17-3 7-20 89-7 31-2 9h8l40-8 8-4 3-16 5-8 5-4 4-3-1-5-16-35-13-29-9-21zm-350 6-10 14-10 13-10 14-3 6-2 13-1 4 3 3 45 19 71 30 28 12 12 5h2l-2-5-13-16-20-26-14-18-10-13-14-18-13-17-11-14-5-6-5 1-9 1zm-11 4-19 12-9 6 3 10 3 7 4-4 12-17 10-13zm-648 40-1 4 10 9 17 13 16 13 12 9 18 14 13 11h5l5-6-15-24-10-15-6-4-28-11-30-12zm523 16-35 8-51 11-10 2 1 4 15 27 14 24 14 25 10 18 8 13 8-2 11 1 6 2 10-14 12-16 10-14 12-16 3-5 4-26v-5l-16-7-10-8-7-10-5-12zm555 8-9 10-3 6 7 2 3-5 4-10v-3zm-457 1-6 10-7 7-10 6-10 5-9 12-13 18-3 8-6 36-5 31v2h8l64-10 84-13 60-9 19-3 1-1 1-10 5-8 1-1v-5l-9-6-29-12-45-19-26-11-56-24zm-546 4 6 10 12 19 5 7 21-7v-11l-13-6-28-11zm344 10-166 36-27 6v2l11 4 58 18 64 20 115 36 4-2 7-8-1-5-13-23-28-49-13-23-6-10-2-2zm-379 3 2 4h2v2l8 7 11 10 11 9 7 6 4-1-2-4-13-10-11-9-15-12zm83 6v10l16 4 10 6 6 7 5 10 2 6 9-1 1-4-2-8 1-10-5-3-30-12zm447 6-2 5-2 16h2l12-16 2-5zm463 25-6 5-9 11-5 6 1 2 11-7 5-4 7-4 1-4-3-5zm-13 3-31 6-12 3-2 3-7 31 7 3 4-1 22-16 14-17 9-11zm-800 4-6 7v2l-4 2 1 5 8 16 11 23 8 16 3 3 16 8 17 8 44 22 23 11 34 17 4 1 60-29 23-11 13-6 1-3-1-8v-5l-8-3-71-22-121-38-39-12-12-4zm-51 7-5 1-3 18-2 8 62 30 12 6-3-9-23-46-4-1-10 2-10-3-8-6zm801-1-34 7-74 15-9 2v3l40 17 23 10 4-2 6-9 8-6 9-4 4-1h18l6-26v-6zm63 2-28 19-10 9-8 10-3-3h-5l5 5h3v2l4-2 12-11 11-9 13-11 7-7zm-475 1m-1 1-8 10-13 18-14 19-5 7 2 5 4 7 2 3 22-3 3-13 8-47v-6zm283 22-3 15-6 8-5 4-6 2h-11l-5-1-6 9-13 25-12 22-11 21v1h6l18-6 41-13 58-18 10-5 15-10 5-3 1-19-10-5-40-17-23-10zm-684 5-4 8 11 11h2l2 4h2l2 4 8 7 44 44 8 7 20 20h2v2l8 7 6 7 7 1 1-1-1-7-11-23-25-50-6-5-23-11-51-25zm829 5m-200 0-30 5-90 14-46 7-66 10-2 1-4 21-1 9 3 3 28 16 27 16 24 14 22 13 3 2 7-1 38-12 48-15 9-3 6-9 9-17 8-16 12-23 10-18-6-7-4-7-2-3zm-638 6-1 4 16 15 6 5h2v2l8 7 10 9 8 7 6 5v-3l-44-44-8-7zm96 31 2 5 11 23 13 26 9 20 3 1 9-3h9l10 3 8 6 5 7 6-1 42-21v-3l-19-10-30-15-23-11-50-25zm297 1-13 2-2 1-2 8v5l8 5 10 6 2-1 4-26zm373 7-2 4 5-1v-3zm-3 4m6 3-20 6-11 6-10 7-85 56-7 5 2 1 24-13 19-11 21-12 29-16 24-14 15-9 3-1v-4zm-441 4-16 8-27 13-23 11-24 12-1 2 78 39 21 10 7 3 9-11 11-7 12-3 9-1 1-1 8-50 1-5v-7l-18-11-5 1-7 6-5 2h-13l-9-4-6-7zm397 10-64 20-31 10-17 5-6 9-16 31-1 4 7 6 5-1 10-6 63-42 19-12 33-22v-2zm-327 7-7 39-3 21 13 5 9 7 7 11 2 4 10-3 50-16 18-6 4-3-27-16-26-15-25-15-21-12zm-169 31-34 16-18 9 1 8 1 6 38 3 61 4 41 3h10l-4-4-23-11-45-22-22-11zm373 1-29 9-59 19 2 4 14 8 13 8 4-2 8-7 11-4h11l10 2 10-20 8-14v-3zm-97 31-58 18-12 4-1 2 13 2 72 5h21l2-6-1-5-26-16-5-3zm-285 13v1l44 7 51 7 23 2 3-5v-3l-3-1-86-6-23-2zm200 15 1 7 1 1h89l-3-2-33-3-36-3z" fill="#3F3F3F"/>
<path transform="translate(984,195)" d="m0 0" fill="#FEFEFE"/>
</svg>
